<svg width="16" height="16" viewBox="0 0 16 16" xmlns="http://www.w3.org/2000/svg">
    <defs>
        <linearGradient id="grad1" x1="0%" y1="0%" x2="100%" y2="100%">
            <stop offset="0%" style="stop-color:#667eea;stop-opacity:1" />
            <stop offset="100%" style="stop-color:#764ba2;stop-opacity:1" />
        </linearGradient>
    </defs>
    
    <!-- Background circle -->
    <circle cx="8" cy="8" r="4" fill="url(#grad1)" />
    
    <!-- Brain icon -->
    <g transform="translate(3.2, 3.2) scale(0.096)">
        <!-- Left brain hemisphere -->
        <path d="M20 30 C15 25, 15 15, 25 10 C35 5, 45 10, 50 20 C50 25, 45 30, 40 35 C35 40, 25 40, 20 30 Z" 
              fill="white" opacity="0.9" stroke="white" stroke-width="2"/>
        
        <!-- Right brain hemisphere -->
        <path d="M50 20 C55 15, 65 15, 75 20 C85 25, 85 35, 80 40 C75 45, 65 45, 60 40 C55 35, 50 30, 50 20 Z" 
              fill="white" opacity="0.9" stroke="white" stroke-width="2"/>
        
        <!-- Brain details -->
        <circle cx="35" cy="25" r="3" fill="rgba(102,126,234,0.8)"/>
        <circle cx="65" cy="30" r="3" fill="rgba(102,126,234,0.8)"/>
        <path d="M30 35 Q40 30 50 35" stroke="rgba(102,126,234,0.8)" stroke-width="2" fill="none"/>
        <path d="M55 25 Q65 20 75 25" stroke="rgba(102,126,234,0.8)" stroke-width="2" fill="none"/>
    </g>
    
    <!-- Text "MI" at bottom -->
    <text x="8" y="13.6" text-anchor="middle" 
          font-family="Arial, sans-serif" font-size="2.4" font-weight="bold" fill="white">MI</text>
</svg>